<svg width="187" height="69" viewBox="0 0 187 69" fill="none" xmlns="http://www.w3.org/2000/svg">
<path d="M0.310068 0C-0.409893 1.94813 0.128565 4.22296 1.87704 5.93514C4.31523 8.32493 6.79577 10.6663 9.2521 13.0319C13.0697 16.7164 16.8934 20.3949 20.6928 24.0915C21.8605 25.2228 22.1812 26.3481 21.7576 27.6308C15.9919 22.0828 10.2504 16.5651 4.32733 10.866C3.84937 13.4312 4.52093 15.2644 6.17261 16.8374C10.5166 20.9817 14.8303 25.1623 19.1501 29.3248C20.1423 30.2807 20.6384 31.4181 20.4266 33.0819C16.3307 29.1554 12.3861 25.3741 8.29619 21.4476C7.84243 23.7648 8.39299 25.4951 9.89946 26.9411C12.9185 29.8512 15.9375 32.7673 18.9565 35.6713C19.5857 36.2763 20.2391 36.8511 20.9893 37.5408C22.2719 34.1104 23.5606 30.9099 24.6556 27.6489C25.3514 25.5798 24.8129 23.6256 23.2339 22.0949C15.6047 14.7078 7.93318 7.33876 0.310068 0Z" fill="white"/>
<path d="M28.6664 13.9574C27.281 12.4751 25.7503 11.132 24.2801 9.7284C24.1773 9.77075 24.0744 9.8131 23.9716 9.85546C24.0684 10.4786 24.1652 11.1078 24.2378 11.5616C22.6587 12.1484 21.1099 12.7292 19.5308 13.3222C19.1254 10.8295 17.4314 9.06289 15.6103 7.35072C14.8178 6.60656 14.0313 5.85029 13.2448 5.09403C11.5749 3.49076 9.91116 1.87538 8.23528 0.26001C7.25517 2.19604 7.60607 4.39827 9.3848 6.1528C9.95351 6.70941 10.5283 7.26602 11.097 7.82262C13.8498 10.5028 16.6268 13.1649 19.3917 15.8329C21.001 17.3878 22.6224 18.9306 24.2317 20.4734C24.4798 19.4509 24.5221 18.4466 24.9759 17.6843C25.3691 17.0188 26.1678 16.3351 26.8877 16.2141C27.4262 16.1233 28.1159 16.9038 28.7814 17.3152C29.453 16.6255 29.5679 14.9073 28.6725 13.9453L28.6664 13.9574Z" fill="white"/>
<path d="M12.2585 31.291C11.8108 33.3601 12.077 34.8364 13.3112 36.0706C14.5273 37.2867 15.8039 38.4483 17.0139 39.6764C17.7762 40.4569 18.3267 41.3463 17.5886 42.9495C16.6751 41.7879 15.9067 40.8078 15.1384 39.8277C15.0234 39.9245 14.9145 40.0152 14.7995 40.1121C15.6647 42.3324 16.5238 44.5468 17.389 46.7672C17.4858 46.7672 17.5826 46.7671 17.6733 46.7732C18.357 44.8674 19.1012 42.9798 19.7122 41.0498C20.0752 39.9003 19.6094 38.8899 18.7745 38.0369C16.669 35.877 14.5757 33.699 12.2525 31.2971L12.2585 31.291Z" fill="white"/>
<path d="M16.7601 56.3507L18.3271 54.7958L20.3599 55.4553L19.2891 53.7492L20.1663 52.4605L18.2242 52.5512L16.9598 51.3049L16.742 52.8356L14.7817 53.4588L16.6512 54.2816L16.7601 56.3507Z" fill="white"/>
<path d="M13.6565 56.26L12.7974 55.0923L12.2166 56.7561L10.5044 57.6152L11.8778 58.2565L11.7991 60.3317L13.2511 58.801L15.2779 59.285L14.3583 57.4579L15.6833 55.7941L13.6565 56.26Z" fill="white"/>
<path d="M10.1291 55.5704L11.0487 53.8885L12.6096 53.5437L11.811 52.733L12.5915 51.4382L11.2847 52.3457L10.6615 52.1279L10.238 53.1686L9.20947 54.2636L10.0807 54.1245L10.1291 55.5704Z" fill="white"/>
<path d="M15.5322 49.9861L14.4432 49.8288L14.3101 50.4762L12.9004 51.299L14.3464 51.2385L14.6489 52.3638L15.6895 51.1054L17.6195 51.0207L16.3973 50.2947L17.0387 49.5505L15.5322 49.9861Z" fill="white"/>
<path d="M8.99777 58.8616L8.35646 57.9541L8.34436 59.5937L7.86035 60.4891L8.51376 60.8884L8.93727 62.6006L9.25187 61.1304L10.5163 61.2635L9.61488 59.7752L10.0202 57.9662L8.99777 58.8616Z" fill="white"/>
<path d="M13.366 63.3386L11.9442 63.9073L10.8431 62.5642L11.0367 64.4034L10.3228 64.9358L11.4239 65.7042L12.0773 67.2772L12.5371 66.2245L14.0799 66.6238L12.888 65.1294L13.366 63.3386Z" fill="white"/>
<path d="M17.4258 61.5539L16.4335 59.4968L15.7015 61.7112L13.8018 62.0621L15.2538 63.3991L15.0965 65.5106L16.7482 64.3914L18.7205 65.4622L18.0913 63.2297L19.6824 61.6507L17.4258 61.5539Z" fill="white"/>
<path d="M22.3203 57.1979L21.1647 55.1167L20.5597 57.3008L18.3091 57.6638L20.0939 59.0735L19.8156 61.2938L21.6729 59.9991L23.4335 60.9187L22.9072 58.8073L24.2321 57.2705L22.3203 57.1979Z" fill="white"/>
<path d="M21.0921 51.1597L19.749 51.6861L21.6185 52.2003L22.3929 53.7673L22.9737 52.5512L24.4378 53.005L23.1734 51.7647L23.1129 50.948L22.0299 50.9843L20.5537 50.1978L21.0921 51.1597Z" fill="white"/>
<path d="M25.8777 54.4813L24.9641 54.7959L23.6089 53.5193L24.1474 55.298L22.895 56.0603L24.589 56.6593L25.2183 58.6921C25.2183 58.6921 25.6962 57.4881 25.7567 56.9981L26.7973 57.2582L25.9201 55.8183L25.8838 54.4752L25.8777 54.4813Z" fill="white"/>
<path d="M7.63047 58.4804L8.04793 57.0466L8.82234 56.7925L8.45933 55.897L9.06434 54.439L8.25968 55.3465L8.23548 55.0379C7.98138 55.4917 7.50342 57.0466 7.50342 57.0466L7.63652 57.0224L7.62442 58.4804H7.63047Z" fill="white"/>
<path d="M7.6429 61.6506L7.60055 60.2046L7.29199 60.743C7.35854 61.8563 7.655 62.3766 7.655 62.3766L8.09665 62.7214L7.6429 61.6506Z" fill="white"/>
<path d="M9.14328 64.8208L9.06463 63.9012L8.63507 64.1008L8.00586 63.2175C8.00586 63.2175 8.61087 65.1173 9.43368 65.934L9.46998 65.7586L10.1355 66.2547L9.14933 64.8208H9.14328Z" fill="white"/>
<path d="M11.5995 67.2773L10.9037 67.2471L9.89941 66.3638C9.89941 66.3638 11.6358 68.3724 12.749 68.6084L11.666 67.8702L11.5995 67.2834V67.2773Z" fill="white"/>
<path d="M11.6359 51.3473L11.3939 51.2687L11.884 50.7C11.6722 50.8391 11.4726 50.9843 11.2911 51.1295C10.2021 52.0128 9.69385 52.9264 9.69385 52.9264C10.317 51.9463 11.6359 51.3473 11.6359 51.3473Z" fill="white"/>
<path d="M13.2332 50.4036C14.2254 49.5082 15.5503 49.4114 15.5503 49.4114C14.1891 49.2844 12.6523 50.2282 12.6523 50.2282L13.209 50.0648L13.2332 50.3976V50.4036Z" fill="white"/>
<path d="M18.8172 49.6653L19.4222 50.4821L20.1119 49.865C20.5959 49.871 21.4974 50.1251 21.4974 50.1251C21.334 49.9376 20.3297 49.5564 20.3297 49.5564L20.4688 49.3507C20.2208 49.2116 18.2727 49.0059 18.2727 49.0059L18.3997 49.3084C17.7644 49.3447 17.2441 49.5685 17.2441 49.5685C17.831 49.5443 18.8172 49.6714 18.8172 49.6714V49.6653Z" fill="white"/>
<path d="M25.206 52.7267L25.2241 52.2911L25.7384 52.6904C25.4177 52.2427 23.4635 50.5911 23.4635 50.5911L23.7963 51.063L23.4272 51.0448C24.4981 51.4139 25.212 52.7267 25.212 52.7267H25.206Z" fill="white"/>
<path d="M27.9468 56.1391C27.5777 55.0198 26.2588 53.4468 26.2588 53.4468L26.7912 54.4571L26.4403 54.8444C27.6019 55.4736 27.8379 56.9014 27.8379 56.9014C27.8681 56.5021 27.7955 56.012 27.7955 56.012L27.9468 56.133V56.1391Z" fill="white"/>
<path d="M41.1001 29.0647V28.7683C41.1001 25.7069 43.0966 23.4744 46.3032 23.4744C49.5097 23.4744 51.5184 25.7069 51.5184 28.7683V29.0647C51.5184 32.1261 49.5218 34.3585 46.3032 34.3585C43.0845 34.3585 41.1001 32.1261 41.1001 29.0647ZM43.3447 22.5488V20.2739H45.68V22.5488H43.3447ZM48.9289 29.0647V28.7683C48.9289 26.7899 47.9972 25.5315 46.2971 25.5315C44.597 25.5315 43.6835 26.7899 43.6835 28.7683V29.0647C43.6835 31.0431 44.6273 32.3015 46.2971 32.3015C47.9669 32.3015 48.9289 31.0431 48.9289 29.0647ZM46.9505 22.5488V20.2739H49.2859V22.5488H46.9505Z" fill="white"/>
<path d="M52.1416 30.7345H54.61C54.7552 31.8416 55.5539 32.4043 56.8002 32.4043C57.9073 32.4043 58.5607 31.9929 58.5607 31.279V31.2185C58.5607 30.5106 58.0888 30.196 56.1105 29.8451C53.5815 29.3853 52.5046 28.4415 52.5046 26.7112V26.6083C52.5046 24.6844 54.2168 23.4744 56.5824 23.4744C58.948 23.4744 60.6904 24.6723 60.8658 26.8745H58.3974C58.2945 25.8823 57.629 25.4104 56.534 25.4104C55.4389 25.4104 54.967 25.8823 54.967 26.5055V26.5478C54.967 27.1528 55.2634 27.4916 57.26 27.8183C59.6679 28.2176 61.0413 29.1191 61.0413 30.9402V31.0612C61.0413 33.1001 59.2384 34.3585 56.7397 34.3585C53.9627 34.3585 52.2929 32.9972 52.1416 30.7345Z" fill="white"/>
<path d="M64.1568 34.1649V25.6948H61.2588V23.668H69.5353V25.6948H66.6555V34.1649H64.1568Z" fill="white"/>
<path d="M70.6125 34.1649V23.6741H78.3566V25.7009H73.0628V27.8426H77.8061V29.8089H73.0628V32.1442H78.4716V34.171H70.6064L70.6125 34.1649Z" fill="white"/>
<path d="M79.6938 34.1649V23.6741H84.4553C86.6878 23.6741 88.3576 24.8538 88.3576 27.0742V27.2255C88.3576 28.8227 87.5166 29.8694 86.1977 30.3413L88.6661 34.171H85.9315L83.7414 30.6256H82.1623V34.171H79.6938V34.1649ZM82.1562 28.5928H84.183C85.1268 28.5928 85.7802 28.1814 85.7802 27.2194V27.0682C85.7802 26.1062 85.1329 25.6948 84.183 25.6948H82.1562V28.5928Z" fill="white"/>
<path d="M89.5371 34.1649V23.6741H94.2985C96.531 23.6741 98.2008 24.8538 98.2008 27.0742V27.2255C98.2008 28.8227 97.3599 29.8694 96.041 30.3413L98.5094 34.171H95.7748L93.5846 30.6256H92.0055V34.171H89.5371V34.1649ZM91.9995 28.5928H94.0263C94.9701 28.5928 95.6235 28.1814 95.6235 27.2194V27.0682C95.6235 26.1062 94.9761 25.6948 94.0263 25.6948H91.9995V28.5928Z" fill="white"/>
<path d="M99.3806 34.1649V23.6741H107.125V25.7009H101.831V27.8426H106.574V29.8089H101.831V32.1442H107.24V34.171H99.3745L99.3806 34.1649Z" fill="white"/>
<path d="M108.528 34.1649V23.6741H111.039V34.1649H108.528Z" fill="white"/>
<path d="M112.298 29.0647V28.7682C112.298 25.6766 114.337 23.4744 117.471 23.4744C120.193 23.4744 121.996 25.1744 122.141 27.7336H119.631C119.528 26.33 118.699 25.5314 117.428 25.5314C115.789 25.5314 114.887 26.8322 114.887 28.7682V29.0647C114.887 31.0007 115.801 32.2893 117.446 32.2893C118.717 32.2893 119.558 31.4605 119.618 29.9964H122.129C121.996 32.61 120.254 34.3585 117.459 34.3585C114.264 34.3585 112.298 32.1562 112.298 29.0647Z" fill="white"/>
<path d="M123.236 34.1649V23.6741H125.735V27.77H129.933V23.6741H132.432V34.1649H129.933V29.8028H125.735V34.1649H123.236Z" fill="white"/>
<path d="M133.981 34.1649V23.6741H136.492V34.1649H133.981Z" fill="white"/>
<path d="M137.672 30.7345H140.14C140.286 31.8416 141.084 32.4043 142.33 32.4043C143.438 32.4043 144.091 31.9929 144.091 31.279V31.2185C144.091 30.5106 143.619 30.196 141.641 29.8451C139.112 29.3853 138.035 28.4415 138.035 26.7112V26.6083C138.035 24.6844 139.747 23.4744 142.113 23.4744C144.478 23.4744 146.221 24.6723 146.396 26.8745H143.928C143.825 25.8823 143.159 25.4104 142.064 25.4104C140.969 25.4104 140.497 25.8823 140.497 26.5055V26.5478C140.497 27.1528 140.794 27.4916 142.79 27.8183C145.198 28.2176 146.572 29.1191 146.572 30.9402V31.0612C146.572 33.1001 144.769 34.3585 142.27 34.3585C139.493 34.3585 137.823 32.9972 137.672 30.7345Z" fill="white"/>
<path d="M147.31 29.0647V28.7682C147.31 25.6766 149.348 23.4744 152.482 23.4744C155.205 23.4744 157.008 25.1744 157.153 27.7336H154.642C154.539 26.33 153.711 25.5314 152.44 25.5314C150.8 25.5314 149.899 26.8322 149.899 28.7682V29.0647C149.899 31.0007 150.813 32.2893 152.458 32.2893C153.729 32.2893 154.57 31.4605 154.63 29.9964H157.141C157.008 32.61 155.265 34.3585 152.47 34.3585C149.276 34.3585 147.31 32.1562 147.31 29.0647Z" fill="white"/>
<path d="M158.248 34.1649V23.6741H160.747V27.77H164.946V23.6741H167.444V34.1649H164.946V29.8028H160.747V34.1649H158.248Z" fill="white"/>
<path d="M168.92 34.1649V23.6741H176.664V25.7009H171.37V27.8426H176.114V29.8089H171.37V32.1442H176.779V34.171H168.914L168.92 34.1649Z" fill="white"/>
<path d="M177.996 34.1649V23.6741H182.757C184.99 23.6741 186.659 24.8538 186.659 27.0742V27.2255C186.659 28.8227 185.818 29.8694 184.499 30.3413L186.968 34.171H184.233L182.043 30.6256H180.464V34.171H177.996V34.1649ZM180.464 28.5928H182.491C183.435 28.5928 184.088 28.1814 184.088 27.2194V27.0682C184.088 26.1062 183.441 25.6948 182.491 25.6948H180.464V28.5928Z" fill="white"/>
<path d="M43.084 45.745V37.4685H43.574V42.2602L48.1903 37.4685H48.8437L45.3951 41.026L48.9647 45.745H48.3597L45.0503 41.3708L43.5801 42.8833V45.739H43.09L43.084 45.745Z" fill="white"/>
<path d="M50.0356 45.745V37.4685H50.5257V45.3034H54.4099V45.745H50.0356Z" fill="white"/>
<path d="M55.5654 45.745V37.4685H60.6838V37.9102H56.0555V41.2801H60.2785V41.7217H56.0555V45.3034H60.708V45.745H55.5654Z" fill="white"/>
<path d="M62.208 45.745V37.4685H62.6981V45.745H62.208Z" fill="white"/>
<path d="M64.5317 45.745V37.4685H65.0944L70.1523 44.9767V37.4685H70.6423V45.745H70.1039L65.0218 38.1885V45.745H64.5317Z" fill="white"/>
<path d="M72.457 45.745V37.4685H77.2729V37.9102H72.9471V41.3043H76.8312V41.7459H72.9471V45.745H72.457Z" fill="white"/>
<path d="M78.6284 45.745V37.4685H83.7468V37.9102H79.1185V41.2801H83.3414V41.7217H79.1185V45.3034H83.771V45.745H78.6284Z" fill="white"/>
<path d="M85.2651 45.745V37.4685H85.7552V45.3034H89.6394V45.745H85.2651Z" fill="white"/>
<path d="M90.7891 45.745V37.4685H93.2635C95.5505 37.4685 97.1235 38.854 97.1235 41.4192V41.7943C97.1235 44.3475 95.5626 45.745 93.2635 45.745H90.7891ZM91.2791 45.3034H93.1788C95.3266 45.3034 96.6092 44.0692 96.6092 41.7943V41.4192C96.6092 39.1444 95.3387 37.9102 93.1788 37.9102H91.2791V45.3034Z" fill="white"/>
<path d="M100.608 45.745V37.4685H105.424V37.9102H101.098V41.3043H104.983V41.7459H101.098V45.745H100.608Z" fill="white"/>
<path d="M106.531 42.7018V37.4685H107.021V42.6776C107.021 44.5108 107.977 45.4183 109.587 45.4183C111.196 45.4183 112.152 44.4987 112.152 42.6655V37.4685H112.642V42.7018C112.642 44.6621 111.595 45.8842 109.587 45.8842C107.578 45.8842 106.531 44.6621 106.531 42.7018Z" fill="white"/>
<path d="M113.846 43.2885H114.36C114.487 44.8071 115.594 45.4363 116.962 45.4363C118.329 45.4363 119.339 44.7708 119.339 43.6394V43.5365C119.339 42.4173 118.323 41.9998 116.81 41.7518C115.074 41.4735 114.16 40.8745 114.16 39.6403V39.5253C114.16 38.3153 115.231 37.3352 116.816 37.3352C118.323 37.3352 119.46 38.1157 119.672 39.6524H119.158C118.97 38.4182 118.087 37.789 116.816 37.789C115.546 37.789 114.65 38.4908 114.65 39.5253V39.6282C114.65 40.6688 115.516 41.0621 116.937 41.298C118.662 41.5884 119.829 42.1269 119.829 43.5123V43.6273C119.829 44.9583 118.662 45.89 116.937 45.89C115.213 45.89 113.943 45.0128 113.846 43.2885Z" fill="white"/>
<path d="M120.585 43.2885H121.1C121.227 44.8071 122.334 45.4363 123.701 45.4363C125.069 45.4363 126.079 44.7708 126.079 43.6394V43.5365C126.079 42.4173 125.063 41.9998 123.55 41.7518C121.814 41.4735 120.9 40.8745 120.9 39.6403V39.5253C120.9 38.3153 121.971 37.3352 123.556 37.3352C125.063 37.3352 126.2 38.1157 126.412 39.6524H125.897C125.71 38.4182 124.827 37.789 123.556 37.789C122.286 37.789 121.39 38.4908 121.39 39.5253V39.6282C121.39 40.6688 122.255 41.0621 123.677 41.298C125.401 41.5884 126.569 42.1269 126.569 43.5123V43.6273C126.569 44.9583 125.401 45.89 123.677 45.89C121.953 45.89 120.682 45.0128 120.585 43.2885Z" fill="white"/>
<path d="M127.943 45.745V37.4685H130.871C132.341 37.4685 133.376 38.0735 133.376 39.4832V39.6102C133.376 40.6267 132.686 41.1349 132.117 41.3466C133.013 41.5584 133.775 42.242 133.775 43.3734V43.5246C133.775 44.9343 132.728 45.739 131.186 45.739H127.943V45.745ZM128.433 41.1893H130.926C132.093 41.1893 132.874 40.6509 132.874 39.6163V39.4892C132.874 38.4305 132.142 37.9162 130.877 37.9162H128.427V41.1954L128.433 41.1893ZM128.433 45.3034H131.228C132.432 45.3034 133.279 44.6742 133.279 43.5307V43.3794C133.279 42.236 132.45 41.6189 131.155 41.6189H128.427V45.3034H128.433Z" fill="white"/>
<path d="M140.944 45.745L139.909 43.1314H135.886L134.845 45.745H134.343L137.641 37.4685H138.167L141.452 45.745H140.938H140.944ZM136.061 42.6897H139.734L137.901 38.0614L136.061 42.6897Z" fill="white"/>
<path d="M142.554 45.745V37.4685H143.044V45.3034H146.928V45.745H142.554Z" fill="white"/>
<path d="M148.083 45.745V37.4685H148.573V45.3034H152.457V45.745H148.083Z" fill="white"/>
<path d="M155.664 45.745V37.4685H158.592C160.062 37.4685 161.097 38.0735 161.097 39.4832V39.6102C161.097 40.6267 160.407 41.1349 159.839 41.3466C160.734 41.5584 161.496 42.242 161.496 43.3734V43.5246C161.496 44.9343 160.45 45.739 158.907 45.739H155.664V45.745ZM156.154 41.1893H158.647C159.814 41.1893 160.595 40.6509 160.595 39.6163V39.4892C160.595 38.4305 159.863 37.9162 158.598 37.9162H156.148V41.1954L156.154 41.1893ZM156.154 45.3034H158.949C160.153 45.3034 161 44.6742 161 43.5307V43.3794C161 42.236 160.171 41.6189 158.877 41.6189H156.148V45.3034H156.154Z" fill="white"/>
<path d="M162.833 42.7018V37.4685H163.324V42.6776C163.324 44.5108 164.279 45.4183 165.889 45.4183C167.498 45.4183 168.454 44.4987 168.454 42.6655V37.4685H168.944V42.7018C168.944 44.6621 167.897 45.8842 165.889 45.8842C163.88 45.8842 162.833 44.6621 162.833 42.7018Z" fill="white"/>
<path d="M170.717 45.745V37.4685H171.279L176.337 44.9767V37.4685H176.827V45.745H176.289L171.207 38.1885V45.745H170.717Z" fill="white"/>
<path d="M178.648 45.745V37.4685H181.123C183.41 37.4685 184.983 38.854 184.983 41.4192V41.7943C184.983 44.3475 183.422 45.745 181.123 45.745H178.648ZM179.138 45.3034H181.038C183.186 45.3034 184.469 44.0692 184.469 41.7943V41.4192C184.469 39.1444 183.198 37.9102 181.038 37.9102H179.138V45.3034Z" fill="white"/>
</svg>
