<svg width="187" height="70" viewBox="0 0 187 70" fill="none" xmlns="http://www.w3.org/2000/svg">
<path d="M0.310068 0.696045C-0.409893 2.64417 0.128565 4.91901 1.87704 6.63119C4.31523 9.02097 6.79577 11.3624 9.2521 13.7279C13.0697 17.4124 16.8934 21.0909 20.6928 24.7875C21.8605 25.9189 22.1812 27.0442 21.7576 28.3268C15.9919 22.7789 10.2504 17.2612 4.32733 11.562C3.84937 14.1272 4.52093 15.9604 6.17261 17.5334C10.5166 21.6778 14.8303 25.8584 19.1501 30.0208C20.1423 30.9768 20.6384 32.1142 20.4266 33.7779C16.3307 29.8514 12.3861 26.0701 8.29619 22.1436C7.84243 24.4608 8.39299 26.1911 9.89946 27.6371C12.9185 30.5472 15.9375 33.4633 18.9565 36.3674C19.5857 36.9724 20.2391 37.5471 20.9893 38.2369C22.2719 34.8065 23.5606 31.606 24.6556 28.345C25.3514 26.2758 24.8129 24.3217 23.2339 22.791C15.6047 15.4038 7.93318 8.03481 0.310068 0.696045Z" fill="white"/>
<path d="M28.6667 14.6536C27.2812 13.1713 25.7505 11.8282 24.2804 10.4246C24.1775 10.4669 24.0747 10.5093 23.9718 10.5516C24.0686 11.1748 24.1654 11.804 24.238 12.2577C22.6589 12.8446 21.1101 13.4254 19.531 14.0183C19.1257 11.5257 17.4317 9.75906 15.6106 8.04688C14.818 7.30272 14.0315 6.54646 13.245 5.7902C11.5752 4.18693 9.9114 2.57155 8.23553 0.956177C7.25541 2.89221 7.60632 5.09444 9.38505 6.84897C9.95375 7.40557 10.5285 7.96218 11.0972 8.51879C13.85 11.199 16.627 13.861 19.3919 16.5291C21.0012 18.084 22.6226 19.6268 24.232 21.1695C24.48 20.1471 24.5224 19.1428 24.9761 18.3804C25.3694 17.7149 26.168 17.0313 26.888 16.9103C27.4264 16.8195 28.1161 17.6 28.7816 18.0114C29.4532 17.3217 29.5682 15.6034 28.6727 14.6415L28.6667 14.6536Z" fill="white"/>
<path d="M12.2588 31.9871C11.811 34.0562 12.0772 35.5324 13.3115 36.7666C14.5275 37.9827 15.8041 39.1443 17.0141 40.3725C17.7764 41.153 18.327 42.0423 17.5889 43.6456C16.6753 42.484 15.907 41.5039 15.1386 40.5237C15.0236 40.6205 14.9147 40.7113 14.7998 40.8081C15.665 43.0285 16.5241 45.2428 17.3892 47.4632C17.486 47.4632 17.5828 47.4632 17.6736 47.4692C18.3572 45.5635 19.1014 43.6758 19.7125 41.7459C20.0755 40.5963 19.6096 39.586 18.7747 38.7329C16.6693 36.573 14.5759 34.395 12.2527 31.9931L12.2588 31.9871Z" fill="white"/>
<path d="M16.7601 57.0468L18.3271 55.4919L20.3599 56.1513L19.2891 54.4452L20.1663 53.1565L18.2242 53.2473L16.9598 52.001L16.742 53.5316L14.7817 54.1548L16.6512 54.9776L16.7601 57.0468Z" fill="white"/>
<path d="M13.6565 56.956L12.7974 55.7883L12.2166 57.4521L10.5044 58.3112L11.8778 58.9525L11.7991 61.0277L13.2511 59.497L15.2779 59.981L14.3583 58.1539L15.6833 56.4901L13.6565 56.956Z" fill="white"/>
<path d="M10.1291 56.2662L11.0487 54.5843L12.6096 54.2395L11.811 53.4288L12.5915 52.134L11.2847 53.0415L10.6615 52.8237L10.238 53.8644L9.20947 54.9594L10.0807 54.8203L10.1291 56.2662Z" fill="white"/>
<path d="M15.5319 50.6819L14.4429 50.5246L14.3098 51.172L12.9001 51.9948L14.3461 51.9343L14.6486 53.0596L15.6892 51.8012L17.6192 51.7165L16.3971 50.9905L17.0384 50.2463L15.5319 50.6819Z" fill="white"/>
<path d="M8.99777 59.5575L8.35646 58.65L8.34436 60.2896L7.86035 61.185L8.51376 61.5843L8.93727 63.2965L9.25187 61.8263L10.5163 61.9594L9.61488 60.4711L10.0202 58.6621L8.99777 59.5575Z" fill="white"/>
<path d="M13.366 64.0345L11.9442 64.6032L10.8431 63.2601L11.0367 65.0994L10.3228 65.6318L11.4239 66.4001L12.0773 67.9731L12.5371 66.9204L14.0799 67.3197L12.888 65.8254L13.366 64.0345Z" fill="white"/>
<path d="M17.4255 62.2499L16.4333 60.1929L15.7012 62.4072L13.8015 62.7581L15.2535 64.0952L15.0962 66.2067L16.7479 65.0874L18.7202 66.1583L18.091 63.9258L19.6822 62.3467L17.4255 62.2499Z" fill="white"/>
<path d="M22.32 57.8937L21.1645 55.8125L20.5595 57.9966L18.3088 58.3596L20.0936 59.7693L19.8153 61.9896L21.6727 60.6949L23.4333 61.6145L22.9069 59.5031L24.2319 57.9663L22.32 57.8937Z" fill="white"/>
<path d="M21.0919 51.8558L19.7488 52.3821L21.6183 52.8964L22.3927 54.4634L22.9735 53.2473L24.4376 53.701L23.1731 52.4608L23.1126 51.644L22.0297 51.6803L20.5534 50.8938L21.0919 51.8558Z" fill="white"/>
<path d="M25.8777 55.1772L24.9641 55.4918L23.6089 54.2152L24.1474 55.9939L22.895 56.7563L24.589 57.3552L25.2183 59.388C25.2183 59.388 25.6962 58.1841 25.7567 57.694L26.7973 57.9542L25.9201 56.5142L25.8838 55.1711L25.8777 55.1772Z" fill="white"/>
<path d="M7.63071 59.1763L8.04817 57.7425L8.82258 57.4884L8.45958 56.593L9.06459 55.1349L8.25992 56.0424L8.23572 55.7338C7.98162 56.1876 7.50366 57.7425 7.50366 57.7425L7.63676 57.7183L7.62466 59.1763H7.63071Z" fill="white"/>
<path d="M7.64265 62.3466L7.6003 60.9006L7.29175 61.4391C7.3583 62.5523 7.65475 63.0726 7.65475 63.0726L8.09641 63.4175L7.64265 62.3466Z" fill="white"/>
<path d="M9.14328 65.5168L9.06463 64.5972L8.63507 64.7969L8.00586 63.9136C8.00586 63.9136 8.61087 65.8133 9.43368 66.6301L9.46998 66.4546L10.1355 66.9507L9.14933 65.5168H9.14328Z" fill="white"/>
<path d="M11.5995 67.9731L10.9037 67.9429L9.89941 67.0596C9.89941 67.0596 11.6358 69.0682 12.749 69.3042L11.666 68.566L11.5995 67.9792V67.9731Z" fill="white"/>
<path d="M11.6359 52.0434L11.3939 51.9647L11.884 51.396C11.6722 51.5351 11.4726 51.6803 11.2911 51.8256C10.2021 52.7089 9.69385 53.6224 9.69385 53.6224C10.317 52.6423 11.6359 52.0434 11.6359 52.0434Z" fill="white"/>
<path d="M13.2329 51.0996C14.2251 50.2041 15.5501 50.1073 15.5501 50.1073C14.1888 49.9803 12.6521 50.9241 12.6521 50.9241L13.2087 50.7608L13.2329 51.0935V51.0996Z" fill="white"/>
<path d="M18.8174 50.3614L19.4224 51.1781L20.1121 50.561C20.5961 50.5671 21.4976 50.8212 21.4976 50.8212C21.3342 50.6336 20.3299 50.2525 20.3299 50.2525L20.4691 50.0468C20.221 49.9076 18.2729 49.7019 18.2729 49.7019L18.4 50.0044C17.7647 50.0407 17.2444 50.2646 17.2444 50.2646C17.8312 50.2404 18.8174 50.3674 18.8174 50.3674V50.3614Z" fill="white"/>
<path d="M25.206 53.4228L25.2241 52.9872L25.7384 53.3865C25.4177 52.9388 23.4635 51.2871 23.4635 51.2871L23.7963 51.759L23.4272 51.7409C24.4981 52.1099 25.212 53.4228 25.212 53.4228H25.206Z" fill="white"/>
<path d="M27.9468 56.835C27.5777 55.7157 26.2588 54.1427 26.2588 54.1427L26.7912 55.1531L26.4403 55.5403C27.6019 56.1695 27.8379 57.5973 27.8379 57.5973C27.8681 57.198 27.7955 56.7079 27.7955 56.7079L27.9468 56.8289V56.835Z" fill="white"/>
<path d="M41.0999 29.7608V29.4643C41.0999 26.403 43.0964 24.1705 46.3029 24.1705C49.5095 24.1705 51.5181 26.403 51.5181 29.4643V29.7608C51.5181 32.8221 49.5216 35.0546 46.3029 35.0546C43.0843 35.0546 41.0999 32.8221 41.0999 29.7608ZM43.3444 23.2448V20.97H45.6798V23.2448H43.3444ZM48.9287 29.7608V29.4643C48.9287 27.4859 47.997 26.2275 46.2969 26.2275C44.5968 26.2275 43.6832 27.4859 43.6832 29.4643V29.7608C43.6832 31.7391 44.6271 32.9976 46.2969 32.9976C47.9667 32.9976 48.9287 31.7391 48.9287 29.7608ZM46.9503 23.2448V20.97H49.2856V23.2448H46.9503Z" fill="white"/>
<path d="M52.1414 31.4305H54.6098C54.755 32.5377 55.5536 33.1003 56.7999 33.1003C57.9071 33.1003 58.5605 32.6889 58.5605 31.975V31.9145C58.5605 31.2067 58.0886 30.8921 56.1102 30.5412C53.5813 30.0814 52.5044 29.1375 52.5044 27.4072V27.3044C52.5044 25.3804 54.2165 24.1704 56.5821 24.1704C58.9477 24.1704 60.6901 25.3683 60.8656 27.5706H58.3971C58.2943 26.5783 57.6288 26.1064 56.5337 26.1064C55.4387 26.1064 54.9667 26.5783 54.9667 27.2015V27.2439C54.9667 27.8489 55.2632 28.1877 57.2597 28.5144C59.6677 28.9137 61.041 29.8151 61.041 31.6362V31.7572C61.041 33.7961 59.2381 35.0545 56.7394 35.0545C53.9624 35.0545 52.2926 33.6933 52.1414 31.4305Z" fill="white"/>
<path d="M64.1568 34.8609V26.3908H61.2588V24.364H69.5353V26.3908H66.6555V34.8609H64.1568Z" fill="white"/>
<path d="M70.6123 34.861V24.3701H78.3564V26.3969H73.0625V28.5386H77.8058V30.5049H73.0625V32.8402H78.4713V34.867H70.6062L70.6123 34.861Z" fill="white"/>
<path d="M79.6934 34.861V24.3701H84.4548C86.6873 24.3701 88.3571 25.5499 88.3571 27.7703V27.9215C88.3571 29.5187 87.5161 30.5654 86.1972 31.0373L88.6656 34.867H85.931L83.7409 31.3217H82.1618V34.867H79.6934V34.861ZM82.1557 29.2888H84.1825C85.1263 29.2888 85.7798 28.8774 85.7798 27.9155V27.7642C85.7798 26.8023 85.1324 26.3908 84.1825 26.3908H82.1557V29.2888Z" fill="white"/>
<path d="M89.5369 34.861V24.3701H94.2983C96.5308 24.3701 98.2006 25.5499 98.2006 27.7703V27.9215C98.2006 29.5187 97.3596 30.5654 96.0407 31.0373L98.5092 34.867H95.7745L93.5844 31.3217H92.0053V34.867H89.5369V34.861ZM91.9992 29.2888H94.026C94.9698 29.2888 95.6233 28.8774 95.6233 27.9155V27.7642C95.6233 26.8023 94.9759 26.3908 94.026 26.3908H91.9992V29.2888Z" fill="white"/>
<path d="M99.3803 34.861V24.3701H107.124V26.3969H101.831V28.5386H106.574V30.5049H101.831V32.8402H107.239V34.867H99.3743L99.3803 34.861Z" fill="white"/>
<path d="M108.528 34.861V24.3701H111.039V34.861H108.528Z" fill="white"/>
<path d="M112.297 29.7607V29.4642C112.297 26.3726 114.336 24.1704 117.47 24.1704C120.193 24.1704 121.996 25.8705 122.141 28.4297H119.63C119.527 27.0261 118.698 26.2274 117.428 26.2274C115.788 26.2274 114.887 27.5282 114.887 29.4642V29.7607C114.887 31.6967 115.8 32.9854 117.446 32.9854C118.717 32.9854 119.557 32.1565 119.618 30.6924H122.129C121.996 33.3061 120.253 35.0545 117.458 35.0545C114.264 35.0545 112.297 32.8523 112.297 29.7607Z" fill="white"/>
<path d="M123.236 34.861V24.3701H125.735V28.466H129.933V24.3701H132.432V34.861H129.933V30.4989H125.735V34.861H123.236Z" fill="white"/>
<path d="M133.981 34.861V24.3701H136.492V34.861H133.981Z" fill="white"/>
<path d="M137.672 31.4305H140.14C140.285 32.5377 141.084 33.1003 142.33 33.1003C143.437 33.1003 144.091 32.6889 144.091 31.975V31.9145C144.091 31.2067 143.619 30.8921 141.64 30.5412C139.112 30.0814 138.035 29.1375 138.035 27.4072V27.3044C138.035 25.3804 139.747 24.1704 142.112 24.1704C144.478 24.1704 146.22 25.3683 146.396 27.5706H143.927C143.825 26.5783 143.159 26.1064 142.064 26.1064C140.969 26.1064 140.497 26.5783 140.497 27.2015V27.2439C140.497 27.8489 140.793 28.1877 142.79 28.5144C145.198 28.9137 146.571 29.8151 146.571 31.6362V31.7572C146.571 33.7961 144.768 35.0545 142.27 35.0545C139.493 35.0545 137.823 33.6933 137.672 31.4305Z" fill="white"/>
<path d="M147.309 29.7607V29.4642C147.309 26.3726 149.348 24.1704 152.482 24.1704C155.204 24.1704 157.007 25.8705 157.153 28.4297H154.642C154.539 27.0261 153.71 26.2274 152.44 26.2274C150.8 26.2274 149.899 27.5282 149.899 29.4642V29.7607C149.899 31.6967 150.812 32.9854 152.458 32.9854C153.728 32.9854 154.569 32.1565 154.63 30.6924H157.14C157.007 33.3061 155.265 35.0545 152.47 35.0545C149.275 35.0545 147.309 32.8523 147.309 29.7607Z" fill="white"/>
<path d="M158.248 34.861V24.3701H160.746V28.466H164.945V24.3701H167.444V34.861H164.945V30.4989H160.746V34.861H158.248Z" fill="white"/>
<path d="M168.92 34.861V24.3701H176.664V26.3969H171.37V28.5386H176.114V30.5049H171.37V32.8402H176.779V34.867H168.914L168.92 34.861Z" fill="white"/>
<path d="M177.995 34.861V24.3701H182.757C184.989 24.3701 186.659 25.5499 186.659 27.7703V27.9215C186.659 29.5187 185.818 30.5654 184.499 31.0373L186.968 34.867H184.233L182.043 31.3217H180.464V34.867H177.995V34.861ZM180.464 29.2888H182.491C183.434 29.2888 184.088 28.8774 184.088 27.9155V27.7642C184.088 26.8023 183.44 26.3908 182.491 26.3908H180.464V29.2888Z" fill="white"/>
<path d="M43.0842 46.4408V38.1643H43.5743V42.956L48.1905 38.1643H48.8439L45.3954 41.7218L48.9649 46.4408H48.3599L45.0505 42.0666L43.5803 43.5791V46.4348H43.0903L43.0842 46.4408Z" fill="white"/>
<path d="M50.0359 46.4408V38.1643H50.5259V45.9992H54.4101V46.4408H50.0359Z" fill="white"/>
<path d="M55.5654 46.4408V38.1643H60.6838V38.606H56.0555V41.9759H60.2785V42.4175H56.0555V45.9992H60.708V46.4408H55.5654Z" fill="white"/>
<path d="M62.2085 46.4408V38.1643H62.6986V46.4408H62.2085Z" fill="white"/>
<path d="M64.532 46.4408V38.1643H65.0946L70.1525 45.6725V38.1643H70.6426V46.4408H70.1041L65.022 38.8843V46.4408H64.532Z" fill="white"/>
<path d="M72.4573 46.4408V38.1643H77.2731V38.606H72.9473V42.0001H76.8315V42.4417H72.9473V46.4408H72.4573Z" fill="white"/>
<path d="M78.6284 46.4408V38.1643H83.7468V38.606H79.1185V41.9759H83.3414V42.4175H79.1185V45.9992H83.771V46.4408H78.6284Z" fill="white"/>
<path d="M85.2656 46.4408V38.1643H85.7557V45.9992H89.6398V46.4408H85.2656Z" fill="white"/>
<path d="M90.7893 46.4408V38.1643H93.2638C95.5507 38.1643 97.1238 39.5498 97.1238 42.115V42.4901C97.1238 45.0433 95.5628 46.4408 93.2638 46.4408H90.7893ZM91.2794 45.9992H93.1791C95.3269 45.9992 96.6095 44.765 96.6095 42.4901V42.115C96.6095 39.8402 95.339 38.606 93.1791 38.606H91.2794V45.9992Z" fill="white"/>
<path d="M100.608 46.4408V38.1643H105.424V38.606H101.098V42.0001H104.983V42.4417H101.098V46.4408H100.608Z" fill="white"/>
<path d="M106.531 43.3976V38.1643H107.022V43.3734C107.022 45.2066 107.977 46.1141 109.587 46.1141C111.196 46.1141 112.152 45.1945 112.152 43.3613V38.1643H112.642V43.3976C112.642 45.3579 111.595 46.58 109.587 46.58C107.578 46.58 106.531 45.3579 106.531 43.3976Z" fill="white"/>
<path d="M113.846 43.9845H114.36C114.488 45.5031 115.595 46.1323 116.962 46.1323C118.329 46.1323 119.34 45.4668 119.34 44.3354V44.2326C119.34 43.1133 118.323 42.6959 116.811 42.4478C115.074 42.1695 114.161 41.5706 114.161 40.3363V40.2214C114.161 39.0114 115.232 38.0312 116.817 38.0312C118.323 38.0312 119.461 38.8117 119.672 40.3484H119.158C118.971 39.1142 118.087 38.485 116.817 38.485C115.546 38.485 114.651 39.1868 114.651 40.2214V40.3242C114.651 41.3649 115.516 41.7581 116.938 41.9941C118.662 42.2845 119.83 42.8229 119.83 44.2084V44.3233C119.83 45.6544 118.662 46.5861 116.938 46.5861C115.214 46.5861 113.943 45.7088 113.846 43.9845Z" fill="white"/>
<path d="M120.586 43.9845H121.1C121.227 45.5031 122.334 46.1323 123.702 46.1323C125.069 46.1323 126.079 45.4668 126.079 44.3354V44.2326C126.079 43.1133 125.063 42.6959 123.55 42.4478C121.814 42.1695 120.901 41.5706 120.901 40.3363V40.2214C120.901 39.0114 121.971 38.0312 123.557 38.0312C125.063 38.0312 126.2 38.8117 126.412 40.3484H125.898C125.71 39.1142 124.827 38.485 123.557 38.485C122.286 38.485 121.391 39.1868 121.391 40.2214V40.3242C121.391 41.3649 122.256 41.7581 123.678 41.9941C125.402 42.2845 126.569 42.8229 126.569 44.2084V44.3233C126.569 45.6544 125.402 46.5861 123.678 46.5861C121.953 46.5861 120.683 45.7088 120.586 43.9845Z" fill="white"/>
<path d="M127.943 46.4408V38.1643H130.871C132.341 38.1643 133.376 38.7693 133.376 40.179V40.306C133.376 41.3225 132.686 41.8307 132.117 42.0424C133.013 42.2542 133.775 42.9378 133.775 44.0692V44.2204C133.775 45.6301 132.728 46.4348 131.186 46.4348H127.943V46.4408ZM128.433 41.8851H130.926C132.093 41.8851 132.874 41.3467 132.874 40.3121V40.185C132.874 39.1263 132.142 38.612 130.877 38.612H128.427V41.8912L128.433 41.8851ZM128.433 45.9992H131.228C132.432 45.9992 133.279 45.37 133.279 44.2265V44.0752C133.279 42.9318 132.45 42.3147 131.155 42.3147H128.427V45.9992H128.433Z" fill="white"/>
<path d="M140.944 46.4408L139.91 43.8272H135.887L134.846 46.4408H134.344L137.641 38.1643H138.167L141.453 46.4408H140.938H140.944ZM136.062 43.3855H139.734L137.901 38.7572L136.062 43.3855Z" fill="white"/>
<path d="M142.554 46.4408V38.1643H143.044V45.9992H146.928V46.4408H142.554Z" fill="white"/>
<path d="M148.083 46.4408V38.1643H148.574V45.9992H152.458V46.4408H148.083Z" fill="white"/>
<path d="M155.664 46.4408V38.1643H158.593C160.063 38.1643 161.097 38.7693 161.097 40.179V40.306C161.097 41.3225 160.408 41.8307 159.839 42.0424C160.734 42.2542 161.497 42.9378 161.497 44.0692V44.2204C161.497 45.6301 160.45 46.4348 158.907 46.4348H155.664V46.4408ZM156.154 41.8851H158.647C159.815 41.8851 160.595 41.3467 160.595 40.3121V40.185C160.595 39.1263 159.863 38.612 158.599 38.612H156.148V41.8912L156.154 41.8851ZM156.154 45.9992H158.95C160.153 45.9992 161 45.37 161 44.2265V44.0752C161 42.9318 160.172 42.3147 158.877 42.3147H156.148V45.9992H156.154Z" fill="white"/>
<path d="M162.834 43.3976V38.1643H163.324V43.3734C163.324 45.2066 164.28 46.1141 165.889 46.1141C167.498 46.1141 168.454 45.1945 168.454 43.3613V38.1643H168.944V43.3976C168.944 45.3579 167.898 46.58 165.889 46.58C163.88 46.58 162.834 45.3579 162.834 43.3976Z" fill="white"/>
<path d="M170.717 46.4408V38.1643H171.279L176.337 45.6725V38.1643H176.827V46.4408H176.289L171.207 38.8843V46.4408H170.717Z" fill="white"/>
<path d="M178.648 46.4408V38.1643H181.123C183.41 38.1643 184.983 39.5498 184.983 42.115V42.4901C184.983 45.0433 183.422 46.4408 181.123 46.4408H178.648ZM179.138 45.9992H181.038C183.186 45.9992 184.469 44.765 184.469 42.4901V42.115C184.469 39.8402 183.198 38.606 181.038 38.606H179.138V45.9992Z" fill="white"/>
</svg>
