<svg width="1580" height="90" viewBox="0 0 1580 90" fill="none" xmlns="http://www.w3.org/2000/svg">
<rect width="1580" height="90" fill="#191E25"/>
<path d="M32.3101 11C31.5901 12.9481 32.1286 15.223 33.877 16.9351C36.3152 19.3249 38.7958 21.6663 41.2521 24.0319C45.0697 27.7164 48.8934 31.3949 52.6928 35.0915C53.8605 36.2228 54.1812 37.3481 53.7576 38.6308C47.9919 33.0828 42.2504 27.5651 36.3273 21.866C35.8494 24.4312 36.5209 26.2644 38.1726 27.8374C42.5166 31.9817 46.8303 36.1623 51.1501 40.3248C52.1423 41.2807 52.6384 42.4181 52.4266 44.0819C48.3307 40.1554 44.3861 36.3741 40.2962 32.4476C39.8424 34.7648 40.393 36.4951 41.8995 37.9411C44.9185 40.8512 47.9375 43.7673 50.9565 46.6713C51.5857 47.2763 52.2391 47.8511 52.9893 48.5408C54.2719 45.1104 55.5606 41.9099 56.6556 38.6489C57.3514 36.5798 56.8129 34.6256 55.2339 33.0949C47.6047 25.7078 39.9332 18.3388 32.3101 11Z" fill="white"/>
<path d="M60.6664 24.9574C59.281 23.4751 57.7503 22.132 56.2801 20.7284C56.1773 20.7708 56.0744 20.8131 55.9716 20.8555C56.0684 21.4786 56.1652 22.1078 56.2378 22.5616C54.6587 23.1484 53.1099 23.7292 51.5308 24.3222C51.1254 21.8295 49.4314 20.0629 47.6103 18.3507C46.8178 17.6066 46.0313 16.8503 45.2448 16.094C43.5749 14.4908 41.9112 12.8754 40.2353 11.26C39.2552 13.196 39.6061 15.3983 41.3848 17.1528C41.9535 17.7094 42.5283 18.266 43.097 18.8226C45.8498 21.5028 48.6268 24.1649 51.3917 26.8329C53.001 28.3878 54.6224 29.9306 56.2317 31.4734C56.4798 30.4509 56.5221 29.4466 56.9759 28.6843C57.3691 28.0188 58.1678 27.3351 58.8877 27.2141C59.4262 27.1233 60.1159 27.9038 60.7814 28.3152C61.453 27.6255 61.5679 25.9073 60.6725 24.9453L60.6664 24.9574Z" fill="white"/>
<path d="M44.2585 42.291C43.8108 44.3601 44.077 45.8364 45.3112 47.0706C46.5273 48.2867 47.8039 49.4483 49.0139 50.6764C49.7762 51.4569 50.3267 52.3463 49.5886 53.9495C48.6751 52.7879 47.9067 51.8078 47.1384 50.8277C47.0234 50.9245 46.9145 51.0152 46.7995 51.1121C47.6647 53.3324 48.5238 55.5468 49.389 57.7672C49.4858 57.7672 49.5826 57.7671 49.6733 57.7732C50.357 55.8674 51.1012 53.9798 51.7122 52.0498C52.0752 50.9003 51.6094 49.8899 50.7745 49.0369C48.669 46.877 46.5757 44.699 44.2525 42.2971L44.2585 42.291Z" fill="white"/>
<path d="M48.7601 67.3507L50.3271 65.7958L52.3599 66.4553L51.2891 64.7492L52.1663 63.4605L50.2242 63.5512L48.9598 62.3049L48.742 63.8356L46.7817 64.4588L48.6512 65.2816L48.7601 67.3507Z" fill="white"/>
<path d="M45.6565 67.26L44.7974 66.0923L44.2166 67.7561L42.5044 68.6152L43.8778 69.2565L43.7991 71.3317L45.2511 69.801L47.2779 70.285L46.3583 68.4579L47.6833 66.7941L45.6565 67.26Z" fill="white"/>
<path d="M42.1296 66.5702L43.0492 64.8883L44.6101 64.5434L43.8115 63.7327L44.592 62.438L43.2851 63.3455L42.662 63.1277L42.2385 64.1683L41.21 65.2634L42.0812 65.1242L42.1296 66.5702Z" fill="white"/>
<path d="M47.5322 60.9859L46.4432 60.8286L46.3101 61.476L44.9004 62.2988L46.3464 62.2383L46.6489 63.3636L47.6895 62.1052L49.6195 62.0205L48.3973 61.2945L49.0387 60.5503L47.5322 60.9859Z" fill="white"/>
<path d="M40.9983 69.8614L40.3569 68.9539L40.3448 70.5934L39.8608 71.4888L40.5142 71.8882L40.9378 73.6003L41.2524 72.1302L42.5168 72.2633L41.6154 70.7749L42.0207 68.966L40.9983 69.8614Z" fill="white"/>
<path d="M45.366 74.3384L43.9442 74.9071L42.8431 73.564L43.0367 75.4032L42.3228 75.9356L43.4239 76.704L44.0773 78.277L44.5371 77.2243L46.0799 77.6236L44.888 76.1292L45.366 74.3384Z" fill="white"/>
<path d="M49.4258 72.5539L48.4335 70.4968L47.7015 72.7112L45.8018 73.0621L47.2538 74.3991L47.0965 76.5106L48.7482 75.3914L50.7205 76.4622L50.0913 74.2297L51.6824 72.6507L49.4258 72.5539Z" fill="white"/>
<path d="M54.3203 68.1977L53.1647 66.1165L52.5597 68.3005L50.3091 68.6635L52.0939 70.0732L51.8156 72.2936L53.6729 70.9989L55.4335 71.9185L54.9072 69.807L56.2321 68.2703L54.3203 68.1977Z" fill="white"/>
<path d="M53.0921 62.1597L51.749 62.6861L53.6185 63.2003L54.3929 64.7673L54.9737 63.5512L56.4378 64.005L55.1734 62.7647L55.1129 61.948L54.0299 61.9843L52.5537 61.1978L53.0921 62.1597Z" fill="white"/>
<path d="M57.8777 65.4813L56.9641 65.7959L55.6089 64.5193L56.1474 66.298L54.895 67.0603L56.589 67.6593L57.2183 69.6921C57.2183 69.6921 57.6962 68.4881 57.7567 67.9981L58.7973 68.2582L57.9201 66.8183L57.8838 65.4752L57.8777 65.4813Z" fill="white"/>
<path d="M39.631 69.4802L40.0484 68.0463L40.8228 67.7922L40.4598 66.8968L41.0648 65.4387L40.2602 66.3462L40.236 66.0377C39.9819 66.4914 39.5039 68.0463 39.5039 68.0463L39.637 68.0221L39.6249 69.4802H39.631Z" fill="white"/>
<path d="M39.6429 72.6506L39.6005 71.2046L39.292 71.743C39.3585 72.8563 39.655 73.3766 39.655 73.3766L40.0967 73.7214L39.6429 72.6506Z" fill="white"/>
<path d="M41.1433 75.8208L41.0646 74.9012L40.6351 75.1008L40.0059 74.2175C40.0059 74.2175 40.6109 76.1173 41.4337 76.934L41.47 76.7586L42.1355 77.2547L41.1493 75.8208H41.1433Z" fill="white"/>
<path d="M43.5995 78.2771L42.9037 78.2468L41.8994 77.3635C41.8994 77.3635 43.6358 79.3722 44.749 79.6081L43.666 78.87L43.5995 78.2831V78.2771Z" fill="white"/>
<path d="M43.6359 62.3473L43.3939 62.2687L43.884 61.7C43.6722 61.8391 43.4726 61.9843 43.2911 62.1295C42.2021 63.0128 41.6938 63.9264 41.6938 63.9264C42.317 62.9463 43.6359 62.3473 43.6359 62.3473Z" fill="white"/>
<path d="M45.2332 61.4034C46.2254 60.508 47.5503 60.4112 47.5503 60.4112C46.1891 60.2841 44.6523 61.2279 44.6523 61.2279L45.209 61.0646L45.2332 61.3973V61.4034Z" fill="white"/>
<path d="M50.8177 60.6653L51.4227 61.4821L52.1124 60.865C52.5964 60.871 53.4978 61.1251 53.4978 61.1251C53.3345 60.9376 52.3302 60.5564 52.3302 60.5564L52.4693 60.3507C52.2213 60.2116 50.2731 60.0059 50.2731 60.0059L50.4002 60.3084C49.7649 60.3447 49.2446 60.5685 49.2446 60.5685C49.8315 60.5443 50.8177 60.6714 50.8177 60.6714V60.6653Z" fill="white"/>
<path d="M57.2065 63.7267L57.2246 63.2911L57.7389 63.6904C57.4182 63.2427 55.464 61.5911 55.464 61.5911L55.7968 62.063L55.4277 62.0448C56.4986 62.4139 57.2125 63.7267 57.2125 63.7267H57.2065Z" fill="white"/>
<path d="M59.9473 67.1391C59.5782 66.0198 58.2593 64.4468 58.2593 64.4468L58.7917 65.4571L58.4408 65.8444C59.6024 66.4736 59.8383 67.9014 59.8383 67.9014C59.8686 67.5021 59.796 67.012 59.796 67.012L59.9473 67.133V67.1391Z" fill="white"/>
<path d="M73.1001 40.0647V39.7683C73.1001 36.7069 75.0966 34.4744 78.3032 34.4744C81.5097 34.4744 83.5184 36.7069 83.5184 39.7683V40.0647C83.5184 43.1261 81.5218 45.3585 78.3032 45.3585C75.0845 45.3585 73.1001 43.1261 73.1001 40.0647ZM75.3447 33.5488V31.2739H77.68V33.5488H75.3447ZM80.9289 40.0647V39.7683C80.9289 37.7899 79.9972 36.5315 78.2971 36.5315C76.597 36.5315 75.6835 37.7899 75.6835 39.7683V40.0647C75.6835 42.0431 76.6273 43.3015 78.2971 43.3015C79.9669 43.3015 80.9289 42.0431 80.9289 40.0647ZM78.9505 33.5488V31.2739H81.2859V33.5488H78.9505Z" fill="white"/>
<path d="M84.1416 41.7345H86.61C86.7552 42.8416 87.5539 43.4043 88.8002 43.4043C89.9073 43.4043 90.5607 42.9929 90.5607 42.279V42.2185C90.5607 41.5106 90.0888 41.196 88.1105 40.8451C85.5815 40.3853 84.5046 39.4415 84.5046 37.7112V37.6083C84.5046 35.6844 86.2168 34.4744 88.5824 34.4744C90.948 34.4744 92.6904 35.6723 92.8658 37.8745H90.3974C90.2945 36.8823 89.629 36.4104 88.534 36.4104C87.4389 36.4104 86.967 36.8823 86.967 37.5055V37.5478C86.967 38.1528 87.2634 38.4916 89.26 38.8183C91.6679 39.2176 93.0413 40.1191 93.0413 41.9402V42.0612C93.0413 44.1001 91.2384 45.3585 88.7397 45.3585C85.9627 45.3585 84.2929 43.9972 84.1416 41.7345Z" fill="white"/>
<path d="M96.1568 45.1649V36.6948H93.2588V34.668H101.535V36.6948H98.6555V45.1649H96.1568Z" fill="white"/>
<path d="M102.612 45.1649V34.6741H110.357V36.7009H105.063V38.8426H109.806V40.8089H105.063V43.1442H110.472V45.171H102.606L102.612 45.1649Z" fill="white"/>
<path d="M111.694 45.1649V34.6741H116.455C118.688 34.6741 120.358 35.8538 120.358 38.0742V38.2255C120.358 39.8227 119.517 40.8694 118.198 41.3413L120.666 45.171H117.931L115.741 41.6256H114.162V45.171H111.694V45.1649ZM114.156 39.5928H116.183C117.127 39.5928 117.78 39.1814 117.78 38.2194V38.0682C117.78 37.1062 117.133 36.6948 116.183 36.6948H114.156V39.5928Z" fill="white"/>
<path d="M121.537 45.1649V34.6741H126.299C128.531 34.6741 130.201 35.8538 130.201 38.0742V38.2255C130.201 39.8227 129.36 40.8694 128.041 41.3413L130.509 45.171H127.775L125.585 41.6256H124.006V45.171H121.537V45.1649ZM123.999 39.5928H126.026C126.97 39.5928 127.624 39.1814 127.624 38.2194V38.0682C127.624 37.1062 126.976 36.6948 126.026 36.6948H123.999V39.5928Z" fill="white"/>
<path d="M131.381 45.1649V34.6741H139.125V36.7009H133.831V38.8426H138.574V40.8089H133.831V43.1442H139.24V45.171H131.375L131.381 45.1649Z" fill="white"/>
<path d="M140.528 45.1649V34.6741H143.039V45.1649H140.528Z" fill="white"/>
<path d="M144.298 40.0647V39.7682C144.298 36.6766 146.337 34.4744 149.471 34.4744C152.193 34.4744 153.996 36.1744 154.141 38.7336H151.631C151.528 37.33 150.699 36.5314 149.428 36.5314C147.789 36.5314 146.887 37.8322 146.887 39.7682V40.0647C146.887 42.0007 147.801 43.2893 149.446 43.2893C150.717 43.2893 151.558 42.4605 151.618 40.9964H154.129C153.996 43.61 152.254 45.3585 149.459 45.3585C146.264 45.3585 144.298 43.1562 144.298 40.0647Z" fill="white"/>
<path d="M155.236 45.1649V34.6741H157.735V38.77H161.934V34.6741H164.432V45.1649H161.934V40.8028H157.735V45.1649H155.236Z" fill="white"/>
<path d="M165.981 45.1649V34.6741H168.492V45.1649H165.981Z" fill="white"/>
<path d="M169.672 41.7345H172.14C172.286 42.8416 173.084 43.4043 174.33 43.4043C175.438 43.4043 176.091 42.9929 176.091 42.279V42.2185C176.091 41.5106 175.619 41.196 173.641 40.8451C171.112 40.3853 170.035 39.4415 170.035 37.7112V37.6083C170.035 35.6844 171.747 34.4744 174.113 34.4744C176.478 34.4744 178.221 35.6723 178.396 37.8745H175.928C175.825 36.8823 175.159 36.4104 174.064 36.4104C172.969 36.4104 172.497 36.8823 172.497 37.5055V37.5478C172.497 38.1528 172.794 38.4916 174.79 38.8183C177.198 39.2176 178.572 40.1191 178.572 41.9402V42.0612C178.572 44.1001 176.769 45.3585 174.27 45.3585C171.493 45.3585 169.823 43.9972 169.672 41.7345Z" fill="white"/>
<path d="M179.31 40.0647V39.7682C179.31 36.6766 181.348 34.4744 184.482 34.4744C187.205 34.4744 189.008 36.1744 189.153 38.7336H186.642C186.539 37.33 185.711 36.5314 184.44 36.5314C182.8 36.5314 181.899 37.8322 181.899 39.7682V40.0647C181.899 42.0007 182.813 43.2893 184.458 43.2893C185.729 43.2893 186.57 42.4605 186.63 40.9964H189.141C189.008 43.61 187.265 45.3585 184.47 45.3585C181.276 45.3585 179.31 43.1562 179.31 40.0647Z" fill="white"/>
<path d="M190.248 45.1649V34.6741H192.747V38.77H196.946V34.6741H199.444V45.1649H196.946V40.8028H192.747V45.1649H190.248Z" fill="white"/>
<path d="M200.921 45.1649V34.6741H208.665V36.7009H203.371V38.8426H208.114V40.8089H203.371V43.1442H208.78V45.171H200.915L200.921 45.1649Z" fill="white"/>
<path d="M209.996 45.1649V34.6741H214.757C216.99 34.6741 218.659 35.8538 218.659 38.0742V38.2255C218.659 39.8227 217.818 40.8694 216.499 41.3413L218.968 45.171H216.233L214.043 41.6256H212.464V45.171H209.996V45.1649ZM212.464 39.5928H214.491C215.435 39.5928 216.088 39.1814 216.088 38.2194V38.0682C216.088 37.1062 215.441 36.6948 214.491 36.6948H212.464V39.5928Z" fill="white"/>
<path d="M75.084 56.7448V48.4683H75.574V53.2599L80.1903 48.4683H80.8437L77.3951 52.0257L80.9647 56.7448H80.3597L77.0503 52.3706L75.5801 53.8831V56.7387H75.09L75.084 56.7448Z" fill="white"/>
<path d="M82.0356 56.7448V48.4683H82.5257V56.3031H86.4099V56.7448H82.0356Z" fill="white"/>
<path d="M87.5654 56.7448V48.4683H92.6838V48.9099H88.0555V52.2798H92.2785V52.7215H88.0555V56.3031H92.708V56.7448H87.5654Z" fill="white"/>
<path d="M94.2085 56.7448V48.4683H94.6986V56.7448H94.2085Z" fill="white"/>
<path d="M96.5317 56.7448V48.4683H97.0944L102.152 55.9764V48.4683H102.642V56.7448H102.104L97.0218 49.1882V56.7448H96.5317Z" fill="white"/>
<path d="M104.457 56.7448V48.4683H109.273V48.9099H104.947V52.304H108.831V52.7457H104.947V56.7448H104.457Z" fill="white"/>
<path d="M110.628 56.7448V48.4683H115.747V48.9099H111.118V52.2798H115.341V52.7215H111.118V56.3031H115.771V56.7448H110.628Z" fill="white"/>
<path d="M117.266 56.7448V48.4683H117.756V56.3031H121.64V56.7448H117.266Z" fill="white"/>
<path d="M122.789 56.7448V48.4683H125.264C127.55 48.4683 129.124 49.8537 129.124 52.419V52.7941C129.124 55.3472 127.563 56.7448 125.264 56.7448H122.789ZM123.279 56.3031H125.179C127.327 56.3031 128.609 55.0689 128.609 52.7941V52.419C128.609 50.1441 127.339 48.9099 125.179 48.9099H123.279V56.3031Z" fill="white"/>
<path d="M132.608 56.7448V48.4683H137.424V48.9099H133.098V52.304H136.983V52.7457H133.098V56.7448H132.608Z" fill="white"/>
<path d="M138.531 53.7016V48.4683H139.021V53.6774C139.021 55.5106 139.977 56.4181 141.587 56.4181C143.196 56.4181 144.152 55.4985 144.152 53.6653V48.4683H144.642V53.7016C144.642 55.6618 143.595 56.8839 141.587 56.8839C139.578 56.8839 138.531 55.6618 138.531 53.7016Z" fill="white"/>
<path d="M145.846 54.2885H146.36C146.487 55.8071 147.594 56.4363 148.962 56.4363C150.329 56.4363 151.339 55.7708 151.339 54.6394V54.5365C151.339 53.4173 150.323 52.9998 148.81 52.7518C147.074 52.4735 146.16 51.8745 146.16 50.6403V50.5253C146.16 49.3153 147.231 48.3352 148.816 48.3352C150.323 48.3352 151.46 49.1157 151.672 50.6524H151.158C150.97 49.4182 150.087 48.789 148.816 48.789C147.546 48.789 146.65 49.4908 146.65 50.5253V50.6282C146.65 51.6688 147.516 52.0621 148.937 52.298C150.662 52.5884 151.829 53.1269 151.829 54.5123V54.6273C151.829 55.9583 150.662 56.89 148.937 56.89C147.213 56.89 145.943 56.0128 145.846 54.2885Z" fill="white"/>
<path d="M152.586 54.2885H153.1C153.227 55.8071 154.334 56.4363 155.702 56.4363C157.069 56.4363 158.079 55.7708 158.079 54.6394V54.5365C158.079 53.4173 157.063 52.9998 155.55 52.7518C153.814 52.4735 152.901 51.8745 152.901 50.6403V50.5253C152.901 49.3153 153.971 48.3352 155.557 48.3352C157.063 48.3352 158.2 49.1157 158.412 50.6524H157.898C157.71 49.4182 156.827 48.789 155.557 48.789C154.286 48.789 153.391 49.4908 153.391 50.5253V50.6282C153.391 51.6688 154.256 52.0621 155.678 52.298C157.402 52.5884 158.569 53.1269 158.569 54.5123V54.6273C158.569 55.9583 157.402 56.89 155.678 56.89C153.953 56.89 152.683 56.0128 152.586 54.2885Z" fill="white"/>
<path d="M159.943 56.7448V48.4683H162.871C164.341 48.4683 165.376 49.0733 165.376 50.4829V50.61C165.376 51.6264 164.686 52.1346 164.117 52.3464C165.013 52.5581 165.775 53.2418 165.775 54.3732V54.5244C165.775 55.9341 164.728 56.7387 163.186 56.7387H159.943V56.7448ZM160.433 52.1891H162.926C164.093 52.1891 164.874 51.6506 164.874 50.616V50.489C164.874 49.4302 164.142 48.916 162.877 48.916H160.427V52.1951L160.433 52.1891ZM160.433 56.3031H163.228C164.432 56.3031 165.279 55.6739 165.279 54.5305V54.3792C165.279 53.2357 164.45 52.6186 163.155 52.6186H160.427V56.3031H160.433Z" fill="white"/>
<path d="M172.944 56.7448L171.91 54.1311H167.887L166.846 56.7448H166.344L169.641 48.4683H170.167L173.453 56.7448H172.938H172.944ZM168.062 53.6895H171.734L169.901 49.0612L168.062 53.6895Z" fill="white"/>
<path d="M174.554 56.7448V48.4683H175.044V56.3031H178.928V56.7448H174.554Z" fill="white"/>
<path d="M180.083 56.7448V48.4683H180.574V56.3031H184.458V56.7448H180.083Z" fill="white"/>
<path d="M187.664 56.7448V48.4683H190.592C192.062 48.4683 193.097 49.0733 193.097 50.4829V50.61C193.097 51.6264 192.407 52.1346 191.839 52.3464C192.734 52.5581 193.496 53.2418 193.496 54.3732V54.5244C193.496 55.9341 192.45 56.7387 190.907 56.7387H187.664V56.7448ZM188.154 52.1891H190.647C191.814 52.1891 192.595 51.6506 192.595 50.616V50.489C192.595 49.4302 191.863 48.916 190.598 48.916H188.148V52.1951L188.154 52.1891ZM188.154 56.3031H190.949C192.153 56.3031 193 55.6739 193 54.5305V54.3792C193 53.2357 192.171 52.6186 190.877 52.6186H188.148V56.3031H188.154Z" fill="white"/>
<path d="M194.833 53.7016V48.4683H195.324V53.6774C195.324 55.5106 196.279 56.4181 197.889 56.4181C199.498 56.4181 200.454 55.4985 200.454 53.6653V48.4683H200.944V53.7016C200.944 55.6618 199.897 56.8839 197.889 56.8839C195.88 56.8839 194.833 55.6618 194.833 53.7016Z" fill="white"/>
<path d="M202.717 56.7448V48.4683H203.279L208.337 55.9764V48.4683H208.827V56.7448H208.289L203.207 49.1882V56.7448H202.717Z" fill="white"/>
<path d="M210.648 56.7448V48.4683H213.123C215.41 48.4683 216.983 49.8537 216.983 52.419V52.7941C216.983 55.3472 215.422 56.7448 213.123 56.7448H210.648ZM211.138 56.3031H213.038C215.186 56.3031 216.469 55.0689 216.469 52.7941V52.419C216.469 50.1441 215.198 48.9099 213.038 48.9099H211.138V56.3031Z" fill="white"/>
</svg>
