<svg width="29" height="29" viewBox="0 0 29 29" fill="none" xmlns="http://www.w3.org/2000/svg">
<path d="M19.0001 14.5646C19.0001 15.7581 18.526 16.9027 17.6821 17.7466C16.8382 18.5905 15.6936 19.0646 14.5001 19.0646C13.3066 19.0646 12.162 18.5905 11.3181 17.7466C10.4742 16.9027 10.0001 15.7581 10.0001 14.5646C10.0001 14.3081 10.0271 14.0576 10.0736 13.8146H8.5001V19.8101C8.5001 20.2271 8.8376 20.5646 9.2546 20.5646H19.7471C19.9469 20.5642 20.1385 20.4845 20.2796 20.3431C20.4208 20.2016 20.5001 20.01 20.5001 19.8101V13.8146H18.9266C18.9731 14.0576 19.0001 14.3081 19.0001 14.5646ZM14.5001 17.5646C14.8942 17.5645 15.2844 17.4868 15.6484 17.3359C16.0124 17.185 16.3432 16.9639 16.6217 16.6852C16.9003 16.4065 17.1213 16.0756 17.272 15.7115C17.4227 15.3474 17.5002 14.9572 17.5001 14.5631C17.5 14.169 17.4223 13.7789 17.2714 13.4148C17.1205 13.0508 16.8994 12.7201 16.6207 12.4415C16.342 12.1629 16.0111 11.942 15.647 11.7912C15.2829 11.6405 14.8927 11.563 14.4986 11.5631C13.7028 11.5633 12.9396 11.8797 12.377 12.4425C11.8144 13.0054 11.4984 13.7688 11.4986 14.5646C11.4988 15.3605 11.8151 16.1236 12.378 16.6862C12.9409 17.2489 13.7043 17.5648 14.5001 17.5646ZM18.1001 11.4146H19.8986C20.0181 11.4146 20.1327 11.3672 20.2173 11.2829C20.302 11.1986 20.3497 11.0841 20.3501 10.9646V9.16611C20.3501 9.04637 20.3025 8.93153 20.2179 8.84685C20.1332 8.76218 20.0183 8.71461 19.8986 8.71461H18.1001C17.9804 8.71461 17.8655 8.76218 17.7808 8.84685C17.6962 8.93153 17.6486 9.04637 17.6486 9.16611V10.9646C17.6501 11.2121 17.8526 11.4146 18.1001 11.4146ZM14.5001 0.164612C10.681 0.164612 7.01828 1.68175 4.31776 4.38227C1.61724 7.0828 0.100098 10.7455 0.100098 14.5646C0.100098 18.3837 1.61724 22.0464 4.31776 24.747C7.01828 27.4475 10.681 28.9646 14.5001 28.9646C16.3911 28.9646 18.2637 28.5921 20.0107 27.8685C21.7578 27.1448 23.3453 26.0841 24.6824 24.747C26.0196 23.4098 27.0803 21.8223 27.804 20.0753C28.5276 18.3282 28.9001 16.4556 28.9001 14.5646C28.9001 12.6736 28.5276 10.8011 27.804 9.05397C27.0803 7.30688 26.0196 5.71944 24.6824 4.38227C23.3453 3.04511 21.7578 1.98441 20.0107 1.26075C18.2637 0.537079 16.3911 0.164612 14.5001 0.164612ZM22.0001 20.3981C22.0001 21.3146 21.2501 22.0646 20.3336 22.0646H8.6666C7.7501 22.0646 7.0001 21.3146 7.0001 20.3981V8.73111C7.0001 7.81461 7.7501 7.06461 8.6666 7.06461H20.3336C21.2501 7.06461 22.0001 7.81461 22.0001 8.73111V20.3981Z" fill="white"/>
</svg>
