<svg width="29" height="29" viewBox="0 0 29 29" fill="none" xmlns="http://www.w3.org/2000/svg">
<path d="M14.5001 0.164612C6.5471 0.164612 0.100098 6.61161 0.100098 14.5646C0.100098 22.5176 6.5471 28.9646 14.5001 28.9646C22.4531 28.9646 28.9001 22.5176 28.9001 14.5646C28.9001 6.61161 22.4531 0.164612 14.5001 0.164612ZM20.3576 11.9606C20.3636 12.0836 20.3651 12.2066 20.3651 12.3266C20.3651 16.0766 17.5136 20.3981 12.2966 20.3981C10.755 20.4007 9.24555 19.9579 7.9496 19.1231C8.1701 19.1501 8.3966 19.1606 8.6261 19.1606C9.9551 19.1606 11.1776 18.7091 12.1481 17.9471C11.5567 17.9355 10.9836 17.7397 10.5088 17.3869C10.0339 17.0341 9.68097 16.542 9.4991 15.9791C9.92383 16.0599 10.3614 16.0429 10.7786 15.9296C10.1367 15.7998 9.5594 15.452 9.14466 14.9451C8.72993 14.4382 8.50326 13.8035 8.5031 13.1486V13.1141C8.8856 13.3256 9.3236 13.4546 9.7886 13.4696C9.1868 13.069 8.76078 12.4536 8.59767 11.7493C8.43456 11.045 8.54668 10.305 8.9111 9.68061C9.62353 10.5566 10.512 11.2732 11.519 11.7841C12.5259 12.2949 13.6289 12.5886 14.7566 12.6461C14.6132 12.0376 14.6749 11.3987 14.9321 10.8289C15.1893 10.259 15.6275 9.7901 16.1787 9.49501C16.7299 9.19992 17.3631 9.0952 17.9799 9.19712C18.5968 9.29904 19.1627 9.6019 19.5896 10.0586C20.2244 9.93303 20.8331 9.70019 21.3896 9.37011C21.178 10.0273 20.7351 10.5854 20.1431 10.9406C20.7054 10.8729 21.2544 10.7217 21.7721 10.4921C21.3918 11.062 20.9128 11.5593 20.3576 11.9606Z" fill="white"/>
</svg>
